<svg xmlns="http://www.w3.org/2000/svg" viewBox="0 0 39.52 39.52"><defs><style>.cls-1{fill:#777;}.cls-2{fill:#fff;}</style></defs><g id="Layer_2" data-name="Layer 2"><g id="Layer_1-2" data-name="Layer 1"><path class="cls-1" d="M20,0A19.76,19.76,0,1,1,0,19.51,19.81,19.81,0,0,1,20,0ZM31.57,29.65A14.71,14.71,0,0,0,8,29.63,14.73,14.73,0,0,0,31.57,29.65ZM19.74,9.9a5.93,5.93,0,1,0,5.94,5.82A5.89,5.89,0,0,0,19.74,9.9Z"/><path class="cls-2" d="M31.57,29.65A14.73,14.73,0,0,1,8,29.63,14.71,14.71,0,0,1,31.57,29.65Z"/><path class="cls-2" d="M19.74,9.9a5.93,5.93,0,1,1,0,11.85,5.93,5.93,0,0,1,0-11.85Z"/></g></g></svg>